<svg xmlns="http://www.w3.org/2000/svg" xmlns:xlink="http://www.w3.org/1999/xlink" width="500" zoomAndPan="magnify" viewBox="0 0 375 374.999991" height="500" preserveAspectRatio="xMidYMid meet" version="1.0"><defs><clipPath id="4478691976"><path d="M 187.5 0 L 249.421875 38.003906 L 320.082031 54.917969 L 336.996094 125.578125 L 375 187.5 L 336.996094 249.421875 L 320.082031 320.082031 L 249.421875 336.996094 L 187.5 375 L 125.578125 336.996094 L 54.917969 320.082031 L 38.003906 249.421875 L 0 187.5 L 38.003906 125.578125 L 54.917969 54.917969 L 125.578125 38.003906 Z M 187.5 0 " clip-rule="nonzero"/></clipPath><clipPath id="5df4cb936a"><path d="M 54.0625 54.0625 L 320.9375 54.0625 L 320.9375 320.9375 L 54.0625 320.9375 Z M 54.0625 54.0625 " clip-rule="nonzero"/></clipPath><clipPath id="b2899bded8"><path d="M 187.5 54.0625 C 113.804688 54.0625 54.0625 113.804688 54.0625 187.5 C 54.0625 261.195312 113.804688 320.9375 187.5 320.9375 C 261.195312 320.9375 320.9375 261.195312 320.9375 187.5 C 320.9375 113.804688 261.195312 54.0625 187.5 54.0625 Z M 187.5 54.0625 " clip-rule="nonzero"/></clipPath><clipPath id="67ad8d857e"><path d="M 54 60.722656 L 314.414062 60.722656 L 314.414062 321 L 54 321 Z M 54 60.722656 " clip-rule="nonzero"/></clipPath></defs><g clip-path="url(#4478691976)"><rect x="-37.5" width="450" fill="#03647b" y="-37.499999" height="449.999989" fill-opacity="1"/></g><g clip-path="url(#5df4cb936a)"><g clip-path="url(#b2899bded8)"><path fill="#0082a1" d="M 54.0625 54.0625 L 320.9375 54.0625 L 320.9375 320.9375 L 54.0625 320.9375 Z M 54.0625 54.0625 " fill-opacity="1" fill-rule="nonzero"/></g></g><g clip-path="url(#67ad8d857e)"><path fill="#00b6e2" d="M 93.367188 96.277344 C 111.902344 77.742188 134.539062 65.890625 158.394531 60.722656 C 149.277344 102.808594 161.128906 148.539062 193.792969 181.207031 C 226.609375 213.871094 272.1875 225.722656 314.273438 216.605469 C 309.109375 240.460938 297.257812 263.097656 278.875 281.632812 C 227.671875 332.832031 144.566406 332.832031 93.367188 281.632812 C 42.164062 230.433594 42.164062 147.476562 93.367188 96.277344 Z M 93.367188 96.277344 " fill-opacity="1" fill-rule="evenodd"/></g><path fill="#fbfaf7" d="M 145.445312 165.109375 C 146.160156 165.824219 146.835938 166.570312 147.476562 167.347656 C 148.117188 168.128906 148.714844 168.9375 149.277344 169.777344 C 149.835938 170.617188 150.355469 171.480469 150.832031 172.371094 C 151.304688 173.261719 151.738281 174.171875 152.125 175.101562 C 152.507812 176.035156 152.847656 176.984375 153.140625 177.949219 C 153.433594 178.914062 153.679688 179.890625 153.875 180.882812 C 154.074219 181.871094 154.222656 182.867188 154.320312 183.871094 C 154.417969 184.875 154.46875 185.882812 154.46875 186.890625 C 154.46875 187.902344 154.417969 188.90625 154.320312 189.910156 C 154.222656 190.914062 154.074219 191.914062 153.875 192.902344 C 153.679688 193.890625 153.433594 194.867188 153.140625 195.835938 C 152.847656 196.800781 152.507812 197.75 152.125 198.679688 C 151.738281 199.613281 151.304688 200.523438 150.832031 201.414062 C 150.355469 202.304688 149.835938 203.167969 149.277344 204.007812 C 148.714844 204.84375 148.117188 205.65625 147.476562 206.433594 C 146.835938 207.214844 146.160156 207.960938 145.445312 208.675781 C 144.730469 209.386719 143.984375 210.066406 143.207031 210.707031 C 142.425781 211.34375 141.617188 211.945312 140.777344 212.507812 C 139.9375 213.066406 139.074219 213.585938 138.183594 214.058594 C 137.292969 214.535156 136.382812 214.964844 135.453125 215.351562 C 134.519531 215.738281 133.570312 216.078125 132.605469 216.371094 C 131.640625 216.664062 130.660156 216.910156 129.671875 217.105469 C 128.683594 217.300781 127.6875 217.449219 126.683594 217.550781 C 125.679688 217.648438 124.671875 217.699219 123.664062 217.699219 C 122.652344 217.699219 121.648438 217.648438 120.644531 217.550781 C 119.640625 217.449219 118.640625 217.300781 117.652344 217.105469 C 116.664062 216.910156 115.6875 216.664062 114.71875 216.371094 C 113.753906 216.078125 112.804688 215.738281 111.875 215.351562 C 110.941406 214.964844 110.03125 214.535156 109.140625 214.058594 C 108.25 213.585938 107.386719 213.066406 106.546875 212.507812 C 105.707031 211.945312 104.898438 211.34375 104.121094 210.707031 C 103.339844 210.066406 102.59375 209.386719 101.878906 208.675781 C 101.167969 207.960938 100.488281 207.214844 99.847656 206.433594 C 99.210938 205.65625 98.609375 204.84375 98.046875 204.007812 C 97.488281 203.167969 96.96875 202.304688 96.496094 201.414062 C 96.019531 200.523438 95.585938 199.613281 95.203125 198.679688 C 94.816406 197.75 94.476562 196.800781 94.183594 195.835938 C 93.890625 194.867188 93.644531 193.890625 93.449219 192.902344 C 93.25 191.914062 93.105469 190.914062 93.003906 189.910156 C 92.90625 188.90625 92.855469 187.902344 92.855469 186.890625 C 92.855469 185.882812 92.90625 184.875 93.003906 183.871094 C 93.105469 182.867188 93.25 181.871094 93.449219 180.882812 C 93.644531 179.890625 93.890625 178.914062 94.183594 177.949219 C 94.476562 176.984375 94.816406 176.035156 95.203125 175.101562 C 95.585938 174.171875 96.019531 173.261719 96.496094 172.371094 C 96.96875 171.480469 97.488281 170.617188 98.046875 169.777344 C 98.609375 168.9375 99.210938 168.128906 99.847656 167.347656 C 100.488281 166.570312 101.167969 165.824219 101.878906 165.109375 C 102.59375 164.394531 103.339844 163.71875 104.121094 163.078125 C 104.898438 162.4375 105.707031 161.839844 106.546875 161.277344 C 107.386719 160.71875 108.25 160.199219 109.140625 159.722656 C 110.03125 159.246094 110.941406 158.816406 111.875 158.429688 C 112.804688 158.042969 113.753906 157.707031 114.71875 157.414062 C 115.6875 157.121094 116.664062 156.875 117.652344 156.679688 C 118.640625 156.480469 119.640625 156.332031 120.644531 156.234375 C 121.648438 156.136719 122.652344 156.085938 123.664062 156.085938 C 124.671875 156.085938 125.679688 156.136719 126.683594 156.234375 C 127.6875 156.332031 128.683594 156.480469 129.671875 156.679688 C 130.660156 156.875 131.640625 157.121094 132.605469 157.414062 C 133.570312 157.707031 134.519531 158.042969 135.453125 158.429688 C 136.382812 158.816406 137.292969 159.246094 138.183594 159.722656 C 139.074219 160.199219 139.9375 160.71875 140.777344 161.277344 C 141.617188 161.839844 142.425781 162.4375 143.207031 163.078125 C 143.984375 163.71875 144.730469 164.394531 145.445312 165.109375 Z M 145.445312 165.109375 " fill-opacity="1" fill-rule="nonzero"/><path fill="#fbfaf7" d="M 219.972656 242.15625 C 220.367188 242.554688 220.742188 242.96875 221.097656 243.402344 C 221.453125 243.835938 221.789062 244.285156 222.097656 244.75 C 222.410156 245.214844 222.699219 245.695312 222.964844 246.191406 C 223.226562 246.683594 223.464844 247.191406 223.679688 247.707031 C 223.894531 248.226562 224.085938 248.753906 224.246094 249.289062 C 224.410156 249.824219 224.546875 250.371094 224.65625 250.917969 C 224.765625 251.46875 224.847656 252.023438 224.902344 252.582031 C 224.957031 253.136719 224.984375 253.695312 224.984375 254.257812 C 224.984375 254.816406 224.957031 255.378906 224.902344 255.933594 C 224.847656 256.492188 224.765625 257.046875 224.65625 257.597656 C 224.546875 258.144531 224.410156 258.6875 224.246094 259.226562 C 224.085938 259.761719 223.894531 260.289062 223.679688 260.804688 C 223.464844 261.324219 223.226562 261.832031 222.964844 262.324219 C 222.699219 262.820312 222.410156 263.300781 222.097656 263.765625 C 221.789062 264.230469 221.453125 264.679688 221.097656 265.113281 C 220.742188 265.546875 220.367188 265.960938 219.972656 266.359375 C 219.574219 266.753906 219.160156 267.128906 218.726562 267.484375 C 218.292969 267.84375 217.84375 268.175781 217.378906 268.488281 C 216.910156 268.796875 216.433594 269.085938 215.9375 269.351562 C 215.441406 269.613281 214.9375 269.855469 214.417969 270.066406 C 213.902344 270.28125 213.375 270.472656 212.839844 270.632812 C 212.300781 270.796875 211.757812 270.933594 211.210938 271.042969 C 210.660156 271.152344 210.105469 271.234375 209.546875 271.289062 C 208.988281 271.34375 208.429688 271.371094 207.871094 271.371094 C 207.308594 271.371094 206.75 271.34375 206.191406 271.289062 C 205.636719 271.234375 205.082031 271.152344 204.53125 271.042969 C 203.980469 270.933594 203.4375 270.796875 202.902344 270.632812 C 202.367188 270.472656 201.839844 270.28125 201.320312 270.066406 C 200.804688 269.855469 200.296875 269.613281 199.804688 269.351562 C 199.308594 269.085938 198.828125 268.796875 198.363281 268.488281 C 197.898438 268.175781 197.445312 267.84375 197.015625 267.484375 C 196.582031 267.128906 196.164062 266.753906 195.769531 266.359375 C 195.375 265.960938 194.996094 265.546875 194.640625 265.113281 C 194.285156 264.679688 193.953125 264.230469 193.640625 263.765625 C 193.328125 263.300781 193.042969 262.820312 192.777344 262.324219 C 192.511719 261.832031 192.273438 261.324219 192.058594 260.804688 C 191.84375 260.289062 191.65625 259.761719 191.492188 259.226562 C 191.332031 258.6875 191.195312 258.144531 191.085938 257.597656 C 190.976562 257.046875 190.894531 256.492188 190.839844 255.933594 C 190.785156 255.378906 190.757812 254.816406 190.757812 254.257812 C 190.757812 253.695312 190.785156 253.136719 190.839844 252.582031 C 190.894531 252.023438 190.976562 251.46875 191.085938 250.917969 C 191.195312 250.371094 191.332031 249.824219 191.492188 249.289062 C 191.65625 248.753906 191.84375 248.226562 192.058594 247.707031 C 192.273438 247.191406 192.511719 246.683594 192.777344 246.191406 C 193.042969 245.695312 193.328125 245.214844 193.640625 244.75 C 193.953125 244.285156 194.285156 243.835938 194.640625 243.402344 C 194.996094 242.96875 195.375 242.554688 195.769531 242.15625 C 196.164062 241.761719 196.582031 241.382812 197.015625 241.027344 C 197.445312 240.671875 197.898438 240.339844 198.363281 240.027344 C 198.828125 239.71875 199.308594 239.429688 199.804688 239.164062 C 200.296875 238.902344 200.804688 238.660156 201.320312 238.445312 C 201.839844 238.230469 202.367188 238.042969 202.902344 237.882812 C 203.4375 237.71875 203.980469 237.582031 204.53125 237.472656 C 205.082031 237.363281 205.636719 237.28125 206.191406 237.226562 C 206.75 237.171875 207.308594 237.144531 207.871094 237.144531 C 208.429688 237.144531 208.988281 237.171875 209.546875 237.226562 C 210.105469 237.28125 210.660156 237.363281 211.210938 237.472656 C 211.757812 237.582031 212.300781 237.71875 212.839844 237.882812 C 213.375 238.042969 213.902344 238.230469 214.417969 238.445312 C 214.9375 238.660156 215.441406 238.902344 215.9375 239.164062 C 216.433594 239.429688 216.910156 239.71875 217.378906 240.027344 C 217.84375 240.339844 218.292969 240.671875 218.726562 241.027344 C 219.160156 241.382812 219.574219 241.761719 219.972656 242.15625 Z M 219.972656 242.15625 " fill-opacity="1" fill-rule="nonzero"/></svg>